<svg width="86" height="81" viewBox="0 0 86 81" fill="none" xmlns="http://www.w3.org/2000/svg">
<path d="M0 81L16.8046 34.0793L46.954 64.2073L0 81ZM5.68391 75.3201L40.5287 62.9726L18.0402 40.5L5.68391 75.3201ZM44.4828 46.9207L42.0115 44.4512L68.2069 18.2744C70.431 16.0518 73.1494 14.9405 76.3621 14.9405C79.5747 14.9405 82.2931 16.0518 84.5172 18.2744L86 19.7561L83.7759 22.2256L82.2931 20.7439C80.6456 19.0976 78.7098 18.2744 76.4856 18.2744C74.2615 18.2744 72.3257 19.0976 70.6782 20.7439L44.4828 46.9207ZM29.1609 31.6098L26.6897 29.1402L29.6552 26.1768C31.6322 24.2012 32.6207 21.814 32.6207 19.0152C32.6207 16.2165 31.6322 13.8293 29.6552 11.8537L26.6897 8.89024L29.1609 6.42073L32.1264 9.38415C34.7625 12.0183 36.0805 15.2287 36.0805 19.0152C36.0805 22.8018 34.7625 26.0122 32.1264 28.6463L29.1609 31.6098ZM36.8218 39.2652L34.3506 36.7957L50.6609 20.497C52.3084 18.8506 53.1322 16.9162 53.1322 14.6936C53.1322 12.471 52.3084 10.5366 50.6609 8.89024L44.2356 2.46951L46.7069 0L53.1322 6.42073C55.4387 8.72561 56.592 11.4832 56.592 14.6936C56.592 17.904 55.4387 20.6616 53.1322 22.9665L36.8218 39.2652ZM52.1437 54.5762L49.6724 52.1067L52.3908 49.3902C55.1092 46.6738 58.4042 45.3155 62.2759 45.3155C66.1475 45.3155 69.4425 46.6738 72.1609 49.3902L74.8793 52.1067L72.408 54.5762L69.6897 51.8598C67.6303 49.8018 65.159 48.7729 62.2759 48.7729C59.3927 48.7729 56.9215 49.8018 54.8621 51.8598L52.1437 54.5762Z" fill="#29ABE2"/>
</svg>
