<svg width="83" height="78" viewBox="0 0 83 78" fill="none" xmlns="http://www.w3.org/2000/svg">
<path d="M60.325 35.15C61.1958 35.15 61.9677 34.8135 62.6406 34.1406C63.3135 33.4677 63.65 32.6958 63.65 31.825C63.65 30.9542 63.3135 30.1823 62.6406 29.5094C61.9677 28.8365 61.1958 28.5 60.325 28.5C59.4542 28.5 58.6823 28.8365 58.0094 29.5094C57.3365 30.1823 57 30.9542 57 31.825C57 32.6958 57.3365 33.4677 58.0094 34.1406C58.6823 34.8135 59.4542 35.15 60.325 35.15ZM22.325 23.9875H46.075V20.6625H22.325V23.9875ZM10.3313 77.9C8.11458 69.825 5.83854 61.8292 3.50312 53.9125C1.16771 45.9958 0 37.8417 0 29.45C0 23.9083 1.93958 19.1979 5.81875 15.3188C9.69792 11.4396 14.4083 9.5 19.95 9.5H46.7875C48.7667 6.8875 51.0823 4.65104 53.7344 2.79063C56.3865 0.930208 59.375 0 62.7 0C62.9375 0 63.1552 0.0989583 63.3531 0.296875C63.551 0.494792 63.65 0.7125 63.65 0.95C63.65 1.02917 63.6302 1.10833 63.5906 1.1875C63.551 1.26667 63.5312 1.34583 63.5312 1.425C62.8979 3.00833 62.4031 4.63125 62.0469 6.29375C61.6906 7.95625 61.3542 9.61875 61.0375 11.2813L75.8812 26.125H82.65V48.5688L70.4187 52.6063L62.8187 77.9H47.5V68.4H25.65V77.9H10.3313ZM12.825 74.575H22.325V65.075H50.825V74.575H60.325L67.6875 50.1125L79.325 46.1938V29.45H74.575L57.95 12.825C57.95 11.2417 58.049 9.71771 58.2469 8.25313C58.4448 6.78854 58.8208 5.34375 59.375 3.91875C57.0792 4.55208 55.1 5.68021 53.4375 7.30313C51.775 8.92604 50.3896 10.7667 49.2812 12.825H19.95C15.3583 12.825 11.4396 14.4479 8.19375 17.6938C4.94792 20.9396 3.325 24.8583 3.325 29.45C3.325 37.2083 4.39375 44.7885 6.53125 52.1906C8.66875 59.5927 10.7667 67.0542 12.825 74.575Z" fill="#1DC5EB"/>
</svg>
