<svg width="66" height="62" viewBox="0 0 66 62" fill="none" xmlns="http://www.w3.org/2000/svg">
<path d="M2.81707 48.7143V59.1818V2.81818V48.7143ZM6.03659 62C4.35976 62 2.93445 61.4129 1.76067 60.2386C0.58689 59.0644 0 57.6385 0 55.961V6.03896C0 4.36147 0.58689 2.93561 1.76067 1.76136C2.93445 0.587121 4.35976 0 6.03659 0H55.939C57.6159 0 59.0412 0.587121 60.2149 1.76136C61.3887 2.93561 61.9756 4.36147 61.9756 6.03896V18.4188H59.1585V6.03896C59.1585 5.09957 58.8567 4.32792 58.253 3.72403C57.6494 3.12013 56.878 2.81818 55.939 2.81818H6.03659C5.09756 2.81818 4.32622 3.12013 3.72256 3.72403C3.1189 4.32792 2.81707 5.09957 2.81707 6.03896V55.961C2.81707 56.9004 3.1189 57.6721 3.72256 58.276C4.32622 58.8799 5.09756 59.1818 6.03659 59.1818H55.939C56.878 59.1818 57.6494 58.8799 58.253 58.276C58.8567 57.6721 59.1585 56.9004 59.1585 55.961V43.5812H61.9756V55.961C61.9756 57.6385 61.3887 59.0644 60.2149 60.2386C59.0412 61.4129 57.6159 62 55.939 62H6.03659ZM38.2317 45.8961C36.5549 45.8961 35.1296 45.309 33.9558 44.1347C32.782 42.9605 32.1951 41.5346 32.1951 39.8571V22.1429C32.1951 20.4654 32.782 19.0395 33.9558 17.8653C35.1296 16.691 36.5549 16.1039 38.2317 16.1039H59.9634C61.6402 16.1039 63.0655 16.691 64.2393 17.8653C65.4131 19.0395 66 20.4654 66 22.1429V39.8571C66 41.5346 65.4131 42.9605 64.2393 44.1347C63.0655 45.309 61.6402 45.8961 59.9634 45.8961H38.2317ZM59.9634 43.0779C60.9024 43.0779 61.6738 42.776 62.2774 42.1721C62.8811 41.5682 63.1829 40.7965 63.1829 39.8571V22.1429C63.1829 21.2035 62.8811 20.4318 62.2774 19.8279C61.6738 19.224 60.9024 18.9221 59.9634 18.9221H38.2317C37.2927 18.9221 36.5213 19.224 35.9177 19.8279C35.314 20.4318 35.0122 21.2035 35.0122 22.1429V39.8571C35.0122 40.7965 35.314 41.5682 35.9177 42.1721C36.5213 42.776 37.2927 43.0779 38.2317 43.0779H59.9634ZM47.0854 37.039C48.7622 37.039 50.1875 36.4518 51.3613 35.2776C52.5351 34.1034 53.122 32.6775 53.122 31C53.122 29.3225 52.5351 27.8966 51.3613 26.7224C50.1875 25.5482 48.7622 24.961 47.0854 24.961C45.4085 24.961 43.9832 25.5482 42.8095 26.7224C41.6357 27.8966 41.0488 29.3225 41.0488 31C41.0488 32.6775 41.6357 34.1034 42.8095 35.2776C43.9832 36.4518 45.4085 37.039 47.0854 37.039Z" fill="#1DC5EB"/>
</svg>
